<?xml version="1.0" encoding="UTF-8"?>
<svg id="Capa_1" data-name="Capa 1" xmlns="http://www.w3.org/2000/svg" viewBox="0 0 52.99 70.8">
  <path d="m45.89,17.35c1.28-.31,2.83-1.12,3.82-.16,1.01.98-.2,2.35-.56,3.49-1.76,5.7-2.72,11.47-2.89,17.48-.26,8.97-.33,17.94-.41,26.9,0,.52-.05,1.04-.14,1.54-.07.37-.29.69-.73.72-.54.03-.84-.29-.9-.78-.07-.59-.1-1.18-.1-1.77.03-11.2.03-22.4.12-33.59.02-2.62.39-5.24.63-8.22-4.25,2.41-6.76,5.94-9.28,9.5-3.53,5-5.18,10.79-7.1,16.48-1.45,4.29-3.05,8.52-5.6,12.31-5.58,8.29-16.15,8.6-22.31.66v-.89c2.35.66,4.5,1.85,6.9,2.4,7.39,1.69,12.13-.45,15.52-7.23,2.95-5.9,5.03-12.17,7.45-18.3,2.11-5.33,4.78-10.33,8.41-14.81,1.66-2.04,3.77-3.52,5.73-5.21.48-.17.96-.35,1.44-.52Z"/>
  <path d="m45.89,17.35c-.48.17-.96.35-1.44.52-.5.03-1,.06-1.5.09,2.7-1.79,4.71-4.02,5.53-7.18.07-.29.18-.57.21-.86.15-1.29.85-2.9-.37-3.74-1.07-.74-2.17.57-3.14,1.14-5.98,3.51-9.36,9.17-12.19,15.21-2.84,6.06-4.42,12.59-6.88,18.79-2,5.04-4.7,9.64-9.24,12.8-4.05,2.82-8.51,4.2-13.46,2.73-.95-.28-2.27-.4-2.43-1.63-.17-1.3,1.04-1.86,1.97-2.44,2.34-1.49,4.8-1.57,7.35-.52-2.11.49-4.38.37-6.54,2.2,2.81.6,5.11.15,7.37-.66,5.02-1.79,8.42-5.39,10.96-9.93,2.69-4.83,4.28-10.09,6.11-15.26,2.67-7.55,6.05-14.68,11.84-20.41,2.45-2.42,5.19-4.42,8.46-5.63,2.37-.88,2.94-.46,3.24,2.11.63,5.43-.94,9.8-5.84,12.66Z"/>
</svg>