<svg id="visual" viewBox="0 0 400 400" width="400" height="400" xmlns="http://www.w3.org/2000/svg" xmlns:xlink="http://www.w3.org/1999/xlink" version="1.1"><g transform="translate(181.5951004364155 223.97434388828373)"><path d="M73.3 -112.3C99.9 -81.5 129.8 -66.7 148.3 -40.9C166.8 -15 173.7 21.8 156.3 43.1C138.8 64.4 97 70.1 66.9 92.2C36.7 114.2 18.4 152.6 -8.4 164.1C-35.1 175.6 -70.1 160.2 -94.2 136.2C-118.3 112.2 -131.4 79.6 -129.3 50.5C-127.1 21.3 -109.7 -4.3 -110.1 -45.9C-110.5 -87.4 -128.7 -144.8 -113.3 -179.3C-98 -213.8 -49 -225.4 -12.8 -207.8C23.3 -190.1 46.6 -143.2 73.3 -112.3" fill="#FFFFFF"></path></g></svg>