<svg id="visual" viewBox="0 0 900 600" width="900" height="600" xmlns="http://www.w3.org/2000/svg" xmlns:xlink="http://www.w3.org/1999/xlink" version="1.1"><path d="M0 433L21.5 428.7C43 424.3 86 415.7 128.8 416C171.7 416.3 214.3 425.7 257.2 430.7C300 435.7 343 436.3 385.8 431.8C428.7 427.3 471.3 417.7 514.2 408.5C557 399.3 600 390.7 642.8 385.8C685.7 381 728.3 380 771.2 376.8C814 373.7 857 368.3 878.5 365.7L900 363L900 601L878.5 601C857 601 814 601 771.2 601C728.3 601 685.7 601 642.8 601C600 601 557 601 514.2 601C471.3 601 428.7 601 385.8 601C343 601 300 601 257.2 601C214.3 601 171.7 601 128.8 601C86 601 43 601 21.5 601L0 601Z" fill="#ffffff"></path><path d="M0 472L21.5 472.7C43 473.3 86 474.7 128.8 470.3C171.7 466 214.3 456 257.2 455.5C300 455 343 464 385.8 461.8C428.7 459.7 471.3 446.3 514.2 441C557 435.7 600 438.3 642.8 441.7C685.7 445 728.3 449 771.2 454.2C814 459.3 857 465.7 878.5 468.8L900 472L900 601L878.5 601C857 601 814 601 771.2 601C728.3 601 685.7 601 642.8 601C600 601 557 601 514.2 601C471.3 601 428.7 601 385.8 601C343 601 300 601 257.2 601C214.3 601 171.7 601 128.8 601C86 601 43 601 21.5 601L0 601Z" fill="#ffd5e2"></path><path d="M0 483L21.5 485.5C43 488 86 493 128.8 495.2C171.7 497.3 214.3 496.7 257.2 489.2C300 481.7 343 467.3 385.8 459C428.7 450.7 471.3 448.3 514.2 452.8C557 457.3 600 468.7 642.8 475.5C685.7 482.3 728.3 484.7 771.2 486.2C814 487.7 857 488.3 878.5 488.7L900 489L900 601L878.5 601C857 601 814 601 771.2 601C728.3 601 685.7 601 642.8 601C600 601 557 601 514.2 601C471.3 601 428.7 601 385.8 601C343 601 300 601 257.2 601C214.3 601 171.7 601 128.8 601C86 601 43 601 21.5 601L0 601Z" fill="#ffaac5"></path><path d="M0 519L21.5 520.5C43 522 86 525 128.8 525.5C171.7 526 214.3 524 257.2 521.5C300 519 343 516 385.8 511.7C428.7 507.3 471.3 501.7 514.2 498.5C557 495.3 600 494.7 642.8 498.5C685.7 502.3 728.3 510.7 771.2 514.8C814 519 857 519 878.5 519L900 519L900 601L878.5 601C857 601 814 601 771.2 601C728.3 601 685.7 601 642.8 601C600 601 557 601 514.2 601C471.3 601 428.7 601 385.8 601C343 601 300 601 257.2 601C214.3 601 171.7 601 128.8 601C86 601 43 601 21.5 601L0 601Z" fill="#fb7da9"></path><path d="M0 560L21.5 560C43 560 86 560 128.8 554.7C171.7 549.3 214.3 538.7 257.2 536.8C300 535 343 542 385.8 548C428.7 554 471.3 559 514.2 557.3C557 555.7 600 547.3 642.8 541.7C685.7 536 728.3 533 771.2 532.2C814 531.3 857 532.7 878.5 533.3L900 534L900 601L878.5 601C857 601 814 601 771.2 601C728.3 601 685.7 601 642.8 601C600 601 557 601 514.2 601C471.3 601 428.7 601 385.8 601C343 601 300 601 257.2 601C214.3 601 171.7 601 128.8 601C86 601 43 601 21.5 601L0 601Z" fill="#f3468e"></path></svg>